<?xml version="1.0" encoding="UTF-8"?>
<svg id="Layer_1" data-name="Layer 1" xmlns="http://www.w3.org/2000/svg" xmlns:xlink="http://www.w3.org/1999/xlink" viewBox="0 0 634.96 1529.49">
  <defs>
    <style>
      .cls-1 {
        clip-path: url(#clippath-6);
      }

      .cls-2 {
        clip-path: url(#clippath-7);
      }

      .cls-3 {
        clip-path: url(#clippath-4);
      }

      .cls-4 {
        fill: #f5baa8;
      }

      .cls-4, .cls-5, .cls-6, .cls-7, .cls-8, .cls-9, .cls-10, .cls-11, .cls-12, .cls-13, .cls-14, .cls-15, .cls-16, .cls-17 {
        fill-rule: evenodd;
      }

      .cls-5 {
        fill: #359587;
      }

      .cls-18 {
        clip-path: url(#clippath-9);
      }

      .cls-6 {
        fill: #fff;
      }

      .cls-19, .cls-20 {
        fill: none;
      }

      .cls-7 {
        fill: #97c8e9;
      }

      .cls-8 {
        fill: #eaab82;
      }

      .cls-21 {
        clip-path: url(#clippath-1);
      }

      .cls-22 {
        clip-path: url(#clippath-5);
      }

      .cls-9 {
        fill: #afe2cb;
      }

      .cls-23 {
        clip-path: url(#clippath-8);
      }

      .cls-20 {
        stroke: #a3b979;
        stroke-linecap: round;
        stroke-miterlimit: 10;
        stroke-width: 8.97px;
      }

      .cls-10 {
        fill: #3c9491;
      }

      .cls-24 {
        clip-path: url(#clippath-3);
      }

      .cls-11 {
        fill: #000a53;
      }

      .cls-12 {
        fill: #d2d2ce;
      }

      .cls-13 {
        fill: #74aed6;
      }

      .cls-25 {
        clip-path: url(#clippath-2);
      }

      .cls-14 {
        fill: #f4f4f3;
      }

      .cls-15 {
        fill: #6a8a23;
      }

      .cls-16 {
        fill: #306e6d;
      }

      .cls-26 {
        clip-path: url(#clippath);
      }

      .cls-17 {
        fill: #f3be9b;
      }
    </style>
    <clipPath id="clippath">
      <rect class="cls-19" x="127.37" y="1070.92" width="299" height="84"/>
    </clipPath>
    <clipPath id="clippath-1">
      <polygon class="cls-19" points="256.83 1087.42 127.7 1071.64 127.7 1388.64 237.1 1388.64 272.68 1207.71 297.87 1398.94 406.34 1384.65 425.42 1083.06 256.47 1084.65 256.83 1087.42"/>
    </clipPath>
    <clipPath id="clippath-2">
      <rect class="cls-19" x="127.37" y="1260.92" width="136" height="139"/>
    </clipPath>
    <clipPath id="clippath-3">
      <polygon class="cls-19" points="256.83 1087.42 127.7 1071.64 127.7 1388.64 237.1 1388.64 272.68 1207.71 297.87 1398.94 406.34 1384.65 425.42 1083.06 256.47 1084.65 256.83 1087.42"/>
    </clipPath>
    <clipPath id="clippath-4">
      <rect class="cls-19" x="276.37" y="1260.92" width="150" height="139"/>
    </clipPath>
    <clipPath id="clippath-5">
      <polygon class="cls-19" points="256.83 1087.42 127.7 1071.64 127.7 1388.64 237.1 1388.64 272.68 1207.71 297.87 1398.94 406.34 1384.65 425.42 1083.06 256.47 1084.65 256.83 1087.42"/>
    </clipPath>
    <clipPath id="clippath-6">
      <rect class="cls-19" x="262.37" y="50.92" width="255" height="157"/>
    </clipPath>
    <clipPath id="clippath-7">
      <path class="cls-19" d="M517.02,207.37c0-86.36-99.22-156.36-221.61-156.36S73.8,121,73.8,207.37c147.74-20.52,295.48-20.58,443.21,0Z"/>
    </clipPath>
    <clipPath id="clippath-8">
      <rect class="cls-19" x="303.37" y="845.92" width="67" height="243"/>
    </clipPath>
    <clipPath id="clippath-9">
      <polygon class="cls-19" points="194.83 852.21 232.77 840.5 370.32 857.15 338.43 1066.1 310.67 1088.19 194.83 852.21"/>
    </clipPath>
  </defs>
  <path class="cls-5" d="M346.79,1368.28c-37.33,0-73.93,72.27-73.93,116.64s36.76,40.9,73.93,44.16c45.05,3.94,97.68-20.66,67.64-80.4-20.25-40.28-30.31-80.4-67.64-80.4"/>
  <path class="cls-5" d="M347.2,1391.31c-21.22,0-38.45,12.9-38.45,28.79s17.23,28.78,38.45,28.78,38.45-12.9,38.45-28.78-17.23-28.79-38.45-28.79"/>
  <path class="cls-5" d="M299.27,1478.98c21.62-16.87,47.18-28.99,75.85-35.62"/>
  <path class="cls-5" d="M392.32,1438.69c-1.74.6-3.51,1.16-5.24,1.77"/>
  <path class="cls-5" d="M386.96,1465.19c-19.75-1.82-42.87-1.29-60.91,6.5"/>
  <path class="cls-5" d="M300.44,1448.9c-4.92,10.5-8.73,21.24-11.55,32.25"/>
  <path class="cls-5" d="M346.91,1470.55c-43.33,0-78.51,13.11-78.51,29.27s35.18,29.27,78.51,29.27,78.51-13.12,78.51-29.27-35.18-29.27-78.51-29.27"/>
  <path class="cls-6" d="M381.46,1331.41l-66.27-.66-1.11,74.96c19.1,20.56,40.89,22.8,66.26.67l1.11-74.97"/>
  <path class="cls-5" d="M179.5,1368.28c-37.33,0-73.92,72.27-73.92,116.64s36.76,40.9,73.92,44.16c45.05,3.94,97.68-20.66,67.64-80.4-20.25-40.28-30.31-80.4-67.64-80.4"/>
  <path class="cls-5" d="M179.92,1391.31c-21.22,0-38.45,12.9-38.45,28.79s17.23,28.78,38.45,28.78,38.45-12.9,38.45-28.78-17.23-28.79-38.45-28.79"/>
  <path class="cls-5" d="M131.99,1478.98c21.62-16.87,47.19-28.99,75.85-35.62"/>
  <path class="cls-5" d="M225.04,1438.69c-1.74.6-3.51,1.16-5.24,1.77"/>
  <path class="cls-5" d="M219.68,1465.19c-19.75-1.82-42.86-1.29-60.91,6.5"/>
  <path class="cls-5" d="M133.16,1448.9c-4.92,10.5-8.73,21.24-11.55,32.25"/>
  <path class="cls-5" d="M179.63,1470.55c-43.33,0-78.5,13.11-78.5,29.27s35.18,29.27,78.5,29.27,78.51-13.12,78.51-29.27-35.18-29.27-78.51-29.27"/>
  <path class="cls-6" d="M214.18,1331.41l-66.26-.66-1.11,74.96c19.1,20.56,40.89,22.8,66.27.67l1.11-74.97"/>
  <path class="cls-7" d="M256.83,1087.42l-129.14-15.78v317h109.4l35.58-180.93,25.19,191.22,108.46-14.28,19.09-301.59-168.95,1.59.36,2.77"/>
  <g class="cls-26">
    <g class="cls-21">
      <path class="cls-13" d="M281.71,1053.14c94.68,0,171.55,22.65,171.55,50.56s-76.87,50.57-171.55,50.57-171.54-22.66-171.54-50.57,76.87-50.56,171.54-50.56"/>
    </g>
  </g>
  <g class="cls-25">
    <g class="cls-24">
      <path class="cls-13" d="M262.89,1261.07s-2,101.04-152.72,109.68l-6.96,28.18,136.56,19.82,23.12-157.68"/>
    </g>
  </g>
  <g class="cls-3">
    <g class="cls-22">
      <path class="cls-13" d="M276.56,1261.07s2,101.04,152.72,109.68l6.96,28.18-136.56,19.82-23.12-157.68"/>
    </g>
  </g>
  <path class="cls-4" d="M428.15,1098.17c-4.66,1.1-10.84,5.31-12.23,6.18-7.8,4.81-21.44,37.06-21.61,38.73-2.41,23.72,1.92,26.39,5.53,25.03,16.79-6.38,10.9-12.04,14.43-19.37,1.3-2.7,1.61-10.05,2.98-8.74,1.32,1.26,3.25,16.79,3.21,21.31-.02,1.76-5.05,28.5-5.07,31.52-.02,2.63-2.48,13.4,6.64,12.18,9.9-1.34,12.91-6.83,12.57-10.28-.21-2.16,3.14-37.62,5.88-37.45,3.82.23-1.7,38.67-1.48,41.44.54,6.54,2.16,7.88,7.46,8.31,3.25.27,7.25-.36,8.84-1.72,2.78-2.38,6.74-46.63,9.56-46.82,4.64-.31-2.21,36.43,2.48,40.8.59.55,1.55,1.01,2.81,1.29,3.78.81,10.68-.23,12.93-1.83,4.65-3.32,3.85-43.2,5.43-44.67.57-.53-.64,31.56,3.69,34.18,2.82,1.7,9.82,1.06,13.05-.03,1.7-.57-.45-30.95.96-33.99.58-1.24,7.96-38.57,6.5-40.89-2.75-4.34-4.5-10.82-11.3-14.86,2.3-4.34,4.76-8.67,6.66-13.07,11.68-27.12-44.48-51.13-44.23-43.77,1.24,37.95-24.09,15.32-34.91,53.26-.27.94-.5,2.07-.77,3.26"/>
  <path class="cls-9" d="M430.55,1075.46l-36.94-227.67,39.39-105.18s86.19-21.95,97.36,360.35l-99.81-27.5"/>
  <path class="cls-8" d="M330.22,638.71c0-18.67-15.16-33.83-33.83-33.83s-33.83,15.16-33.83,33.83v93.13c0,18.68,15.16,33.84,33.83,33.84s33.83-15.16,33.83-33.84v-93.13"/>
  <path class="cls-17" d="M517.02,304.73c0-122.3-99.3-221.6-221.61-221.6s-221.61,99.3-221.61,221.6v158.95c0,122.31,99.3,221.61,221.61,221.61s221.61-99.3,221.61-221.61v-158.95"/>
  <path class="cls-11" d="M105.6,400.26s-7.71-151.32,38.85-183.48c0,0,53.04,45.12,94.8,0,0,0,90,25.68,114,0,0,0-1.68,24.24-57.84,25.68,0,0,73.68,38.64,121.92-25.68,0,0,40.11-10.56,59.31,13.44,19.2,24,38.4,103.08,19.2,145.92,0,0,40.81-57.28,67.44-42.84,0,0-49.68-325.08-351.6-234.12,0,0-87.65,15.36-106.08,73.2,0,0-63.84,47.06-66.02,179.16,0,0,9.86-31.68,66.02,48.72"/>
  <path class="cls-10" d="M517.02,207.37c0-86.36-99.22-156.36-221.61-156.36S73.8,121,73.8,207.37c147.74-20.52,295.48-20.58,443.21,0"/>
  <g class="cls-1">
    <g class="cls-2">
      <path class="cls-16" d="M262.56,9.96s239.2,101.74,199.12,228.19l173.28,20.21S557.36-59.65,262.56,9.96"/>
    </g>
  </g>
  <path class="cls-17" d="M123.36,381.55c0-34.05-27.64-61.68-61.68-61.68S0,347.49,0,381.55v37.44c0,34.04,27.64,61.68,61.68,61.68s61.68-27.64,61.68-61.68v-37.44"/>
  <path class="cls-17" d="M600,381.55c0-34.05-27.64-61.68-61.68-61.68s-61.68,27.63-61.68,61.68v37.44c0,34.04,27.64,61.68,61.68,61.68s61.68-27.64,61.68-61.68v-37.44"/>
  <path class="cls-14" d="M246.96,714.23v-17.88s45.61,23.04,43.45,56.64c0,0,2.16-43.72,56.16-50.18v32.74l23.76,17.44-99.6,136.95-47.06-162.15,23.3-13.56"/>
  <path class="cls-9" d="M56.16,997.07c6.24-50.56,6.9-248.07,106.65-274.88,99.75-26.8-37.46,303.34-37.46,303.34,0,0-72.25-3.71-69.19-28.46"/>
  <path class="cls-10" d="M162.81,722.19s-18.59,122.98-42.57,114.03c0,0-9.84,221.1-29.04,237.9,0,0,86.57,104.72,343.37,34.73,0,0-24.61-176.86-1.57-233.02v-133.23l-79.2-20.41-75.89,139.9-30.96-147.86s-58.8,13.57-84.15,7.96"/>
  <path class="cls-14" d="M194.83,852.21l37.93-11.7,137.56,16.65-31.89,208.94-27.76,22.09-115.84-235.98"/>
  <g class="cls-23">
    <g class="cls-18">
      <path class="cls-12" d="M310.67,889.94l80.49-43.35-34.76,241.59-52.56,11.37,6.83-209.61"/>
    </g>
  </g>
  <path class="cls-15" d="M338.43,877.65l-141.02-20.5-29.7,204.29,141.02,20.5,29.7-204.29"/>
  <path class="cls-20" d="M338.43,877.65l-141.02-20.5-29.7,204.29,141.02,20.5,29.7-204.29Z"/>
  <path class="cls-4" d="M273.73,934.71c2.34-4.87,8.42-10.69,9.7-12.03,7.13-7.47,45.32-15.17,47.15-14.98,26.19,2.71,28,8.06,25.63,11.72-11.05,16.99-15.69,9.24-24.47,11.46-3.24.82-11.25-.5-10.18,1.29,1.04,1.74,17.32,7.35,22.2,8.34,1.89.38,10.64-3.74,13.9-3.08,2.84.57,15.08.3,11.49,10.03-3.9,10.57-10.57,12.64-14.21,11.48-2.27-.72-20-.42-20.5,2.62-.7,4.25,20.79,2.24,23.72,3.11,6.92,2.07,7.97,4.15,7.11,10.07-.52,3.62-2.2,7.88-4.05,9.31-3.26,2.51-30.62,1.49-31.53,4.54-1.49,5.02,18.49,1.18,22.05,7.31.45.77.71,1.93.68,3.38-.06,4.34-2.9,11.67-5.19,13.78-4.73,4.35-26.2-.9-28.18.5-.72.51,29.7.64,31.45,5.97,1.14,3.48-1.3,11.02-3.27,14.32-1.04,1.73-28.77-1.7-32.4-.83-1.49.35-43.6.04-45.74-2.1-4-3.99-10.55-7.38-13.22-15.75-5.26,1.54-10.54,3.27-15.76,4.36-32.15,6.7-44.11-60.34-36.23-58.42,40.63,9.92,22.51-22.97,66.14-26.29,1.08-.09,2.35-.08,3.71-.11"/>
  <path class="cls-9" d="M254.93,923.23l-137.68-33.29-37.48,121.44s156.83,57.81,197.36,9.98l-22.19-98.13"/>
</svg>